<svg width="1512" height="982" viewBox="0 0 1512 982" fill="none" xmlns="http://www.w3.org/2000/svg">
<g clip-path="url(#clip0_813_126)">
<rect width="1512" height="982" fill="url(#paint0_linear_813_126)"/>
<path d="M1470.33 675.94C1459.87 746.873 1504.52 792.968 1569.26 762.134V762.134C1630.67 732.879 1694.88 845.815 1679.32 912.041C1677.17 921.212 1674.46 931.354 1671.1 942.591C1644.51 1031.44 1561.56 955.419 1540.66 1054.57C1535.38 1079.63 1539.8 1118.53 1549.74 1142.13V1142.13C1600.04 1261.65 1740.36 1232.22 1742 1361.88C1742.76 1421.78 1742.46 1481.74 1739.44 1532.18C1732.3 1651.03 1614.97 1592.13 1619.27 1473.15C1620.48 1439.46 1622.38 1404.88 1621.01 1373.89C1617.07 1285.02 1483.99 1342.77 1489.8 1431.53V1431.53C1497.71 1552.25 1523.91 1687.83 1412.32 1734.55C1373.5 1750.81 1336.72 1733 1312.44 1694.99C1258.32 1610.27 1244.19 1495.07 1262.83 1396.28C1267.25 1372.91 1274.49 1351.5 1281.31 1331.42C1312.9 1238.53 1217.51 1188.3 1120.36 1174.52C1070.84 1167.49 1037.76 1151.07 1037.76 1092.89C1037.76 993.517 1139.65 1002.73 1187.36 865.89C1195.02 843.945 1191.66 806.516 1184 784.573V784.573C1147.48 679.938 1224.72 615.206 1233.17 504.702C1234.77 483.713 1239.86 461.668 1250.2 437.94C1273.52 384.434 1337.87 351.855 1385.81 385.157C1403.8 397.658 1418.58 413.855 1430.58 431.267C1463.56 479.146 1488.34 543.56 1481.05 601.245C1478.42 622.129 1474.61 646.949 1470.33 675.94Z" fill="#C4C4C4" fill-opacity="0.01"/>
<path d="M1494.33 702.94C1483.87 773.873 1528.52 819.967 1593.26 789.133V789.133C1654.67 759.878 1718.88 872.814 1703.32 939.04C1701.17 948.211 1698.46 958.353 1695.1 969.591C1668.51 1058.44 1585.56 982.418 1564.66 1081.57C1559.38 1106.63 1563.8 1145.53 1573.74 1169.13V1169.13C1624.04 1288.65 1764.36 1259.22 1766 1388.88C1766.76 1448.78 1766.46 1508.74 1763.44 1559.18C1756.3 1678.03 1638.97 1619.13 1643.27 1500.15C1644.48 1466.46 1646.38 1431.88 1645.01 1400.88C1641.07 1312.02 1507.99 1369.77 1513.8 1458.53V1458.53C1521.71 1579.25 1547.91 1714.83 1436.32 1761.55C1397.5 1777.81 1360.72 1760 1336.44 1721.99C1282.32 1637.26 1268.19 1522.07 1286.83 1423.28C1291.25 1399.91 1298.49 1378.5 1305.31 1358.42C1336.9 1265.53 1241.51 1215.3 1144.36 1201.52C1094.84 1194.49 1061.76 1178.07 1061.76 1119.89C1061.76 1020.52 1163.65 1029.73 1211.36 892.89C1219.02 870.944 1215.66 833.516 1208 811.572V811.572C1171.48 706.937 1248.72 642.206 1257.17 531.702C1258.77 510.713 1263.86 488.667 1274.2 464.94C1297.52 411.434 1361.87 378.854 1409.81 412.157C1427.8 424.657 1442.58 440.855 1454.58 458.267C1487.56 506.145 1512.34 570.56 1505.05 628.245C1502.42 649.129 1498.61 673.948 1494.33 702.94Z" fill="#C4C4C4" fill-opacity="0.02"/>
<circle cx="3.0915" cy="3.0915" r="3.0915" transform="matrix(-0.0237398 0.999718 0.999718 0.0237398 122.146 131)" fill="#EBEBEB" fill-opacity="0.7"/>
<circle cx="1.68038" cy="1.68038" r="1.68038" transform="matrix(-0.0237398 0.999718 0.999718 0.0237398 1458.26 146.366)" fill="#EBEBEB" fill-opacity="0.2"/>
<circle cx="75.5256" cy="48.5252" r="3.44441" transform="rotate(91.3603 75.5256 48.5252)" fill="#EBEBEB" fill-opacity="0.4"/>
<circle cx="179.036" cy="281.036" r="1.98953" transform="rotate(91.3603 179.036 281.036)" fill="#EBEBEB" fill-opacity="0.4"/>
<circle opacity="0.75" cx="3.39955" cy="3.39955" r="3.39955" transform="matrix(-0.0237398 0.999718 0.999718 0.0237398 66.2324 374.568)" fill="#EBEBEB" fill-opacity="0.1"/>
<circle cx="3.90224" cy="3.90224" r="3.90224" transform="matrix(-0.0237398 0.999718 0.999718 0.0237398 1460.19 355)" fill="#EBEBEB" fill-opacity="0.2"/>
<circle cx="3.13735" cy="3.13735" r="3.13735" transform="matrix(0.239272 0.970953 0.970953 -0.239272 1343.17 108.264)" fill="#EBEBEB" fill-opacity="0.7"/>
<circle cx="2.47052" cy="2.47052" r="2.47052" transform="matrix(0.239272 0.970953 0.970953 -0.239272 1418 857.182)" fill="#EBEBEB" fill-opacity="0.6"/>
<circle cx="2.12176" cy="2.12176" r="2.12176" transform="matrix(0.239272 0.970953 0.970953 -0.239272 163.104 528.28)" fill="#EBEBEB" fill-opacity="0.7"/>
<circle cx="3.79827" cy="3.79827" r="3.79827" transform="matrix(0.239272 0.970953 0.970953 -0.239272 1449 764.818)" fill="#EBEBEB" fill-opacity="0.65"/>
<circle cx="2.10227" cy="2.10227" r="2.10227" transform="matrix(0.239272 0.970953 0.970953 -0.239272 1413 804.006)" fill="#EBEBEB" fill-opacity="0.1"/>
<circle cx="1353.17" cy="914.169" r="3.44441" transform="rotate(76.1564 1353.17 914.169)" fill="#EBEBEB" fill-opacity="0.4"/>
<circle cx="3.80623" cy="3.80623" r="3.80623" transform="matrix(0.239272 0.970953 0.970953 -0.239272 1372 846.821)" fill="#EBEBEB" fill-opacity="0.5"/>
<circle cx="3.75623" cy="3.75623" r="3.75623" transform="matrix(0.278654 0.960392 0.960392 -0.278654 23.2012 739.865)" fill="#EBEBEB" fill-opacity="0.6"/>
<circle cx="4.11961" cy="4.11961" r="4.11961" transform="matrix(0.278654 0.960392 0.960392 -0.278654 143.031 854.276)" fill="#EBEBEB" fill-opacity="0.5"/>
<circle cx="98.1133" cy="827.538" r="2.32922" transform="rotate(73.8201 98.1133 827.538)" fill="#EBEBEB" fill-opacity="0.1"/>
<circle cx="3.4143" cy="3.4143" r="3.4143" transform="matrix(0.278654 0.960392 0.960392 -0.278654 1397.12 301.592)" fill="#EBEBEB" fill-opacity="0.6"/>
<circle cx="2.51006" cy="2.51006" r="2.51006" transform="matrix(0.278654 0.960392 0.960392 -0.278654 226 905.399)" fill="#EBEBEB" fill-opacity="0.7"/>
<circle cx="1438.21" cy="283.207" r="1.82403" transform="rotate(76.1564 1438.21 283.207)" fill="#EBEBEB" fill-opacity="0.5"/>
<g opacity="0.5">
<path d="M65.7224 488.23C66.7675 489.734 67.1944 491.53 67.0726 493.425C66.8774 496.459 64.7014 499.092 61.7562 499.848C60.6064 500.143 59.4717 500.406 58.1439 501.329C55.361 503.264 52.9578 506.002 50.1423 506.251C46.3827 506.583 44.0304 507.244 42.1876 504.594C40.3448 501.943 37.8463 497.444 39.4671 494.035C40.1291 492.643 41.6282 491.112 43.4078 489.936C46.2191 488.078 49.985 487.079 52.834 488.878C54.0744 489.662 55.3172 490.478 56.5556 490.368C60.3152 490.036 63.8796 485.58 65.7224 488.23Z" fill="url(#paint1_linear_813_126)"/>
<path d="M65.2226 492.13V492.13C67.2717 495.077 60.8127 496.295 57.4815 497.631C57.2268 497.733 56.9876 497.856 56.7696 498.007C55.1982 499.1 54.3732 495.99 52.424 495.614C51.8958 495.512 51.53 495.514 51.2634 495.566C49.4531 495.918 47.7737 494.619 47.5549 492.788C47.5079 492.394 47.6897 492.171 47.7778 491.642C47.9378 490.681 48.8453 490.86 50.0037 491.331C52.4694 492.332 55.2189 491.988 57.8792 492.058V492.058C58.737 492.081 59.5989 492.212 60.439 492.037C62.3267 491.644 63.6827 489.915 65.2226 492.13Z" fill="url(#paint2_linear_813_126)"/>
<path d="M43.24 502.047C42.9089 501.571 42.904 501.397 43.0331 501.321C43.732 500.908 44.3164 500.344 45.1279 500.332V500.332C45.6985 500.323 46.3039 500.12 46.6954 500.535C46.9109 500.764 47.1298 501.046 47.5237 501.215V501.215C48.6028 501.679 48.8939 501.639 48.6577 502.789C48.6545 502.805 48.6532 502.822 48.6542 502.841C48.6704 503.163 48.5157 503.491 48.2674 503.755C47.5124 504.555 46.4769 503.719 45.8475 502.816V502.816C45.6918 502.593 45.4168 502.512 45.145 502.495C44.4067 502.449 44.0424 503.201 43.24 502.047Z" fill="#636363"/>
<circle cx="43.3645" cy="494.839" r="1.68614" transform="rotate(-34.8101 43.3645 494.839)" fill="#5A5A5A"/>
<circle cx="60.3512" cy="490.473" r="0.843069" transform="rotate(-34.8101 60.3512 490.473)" fill="#5A5A5A"/>
<circle cx="52.7438" cy="499.1" r="0.843069" transform="rotate(-34.8101 52.7438 499.1)" fill="#5A5A5A"/>
</g>
<g opacity="0.75">
<path d="M86.5535 580.648C83.7331 584.105 79.2383 584.566 74.0927 583.71C68.1053 581.833 69.8583 576.496 66.2287 573.534C65.0835 572.6 63.8503 571.948 62.6544 571.379C58.0748 569.2 52.5058 565.223 53.3861 560.228C53.6664 558.637 54.6306 557.107 55.8572 555.604C58.6776 552.147 63.7055 547.115 68.8511 547.971C70.79 548.294 72.4729 549.598 73.9075 551.369C76.8384 554.989 79.4056 558.924 83.4764 561.186C87.0164 563.154 90.6445 565.25 91.4915 567.453C93.3635 572.322 89.374 577.191 86.5535 580.648Z" fill="url(#paint3_linear_813_126)"/>
<path d="M82.9562 579.528V579.528C79.5248 583.734 74.0458 576.754 70.0773 573.051C69.9916 572.971 69.9037 572.894 69.8133 572.82C67.7568 571.142 59.7295 566.653 59.2496 564.201V564.201C58.2359 559.024 68.0373 556.956 72.3788 559.954C72.6351 560.13 72.8878 560.321 73.1359 560.524C73.732 561.01 74.0585 561.595 74.2353 562.249C75.2444 565.983 77.0314 568.587 80.4893 570.321V570.321C81.7058 570.931 81.8294 572.212 82.391 573.452C83.384 575.643 84.78 577.292 82.9562 579.528Z" fill="url(#paint4_linear_813_126)"/>
<path d="M82.4392 561.466C82.4518 561.483 82.4639 561.5 82.4757 561.517C83.4646 562.926 80.9736 565.05 79.8059 563.785V563.785C78.7798 562.673 77.1095 562.017 76.8038 560.535C76.5894 559.496 76.6557 558.354 76.4827 557.644C76.4561 557.534 76.4269 557.413 76.398 557.284C76.1037 555.977 77.4048 556.172 78.1773 557.266V557.266C78.5799 557.837 79.0977 558.349 79.6071 558.827C80.4831 559.648 81.578 560.278 82.4392 561.466Z" fill="#636363"/>
<circle cx="78.3188" cy="574.151" r="2.33039" transform="rotate(39.2099 78.3188 574.151)" fill="#5A5A5A"/>
<circle cx="62.1094" cy="566.602" r="1.60214" transform="rotate(39.2099 62.1094 566.602)" fill="#5A5A5A"/>
<circle cx="63.0744" cy="553.668" r="1.16519" transform="rotate(39.2099 63.0744 553.668)" fill="#5A5A5A"/>
</g>
</g>
<defs>
<linearGradient id="paint0_linear_813_126" x1="731.5" y1="879" x2="731.5" y2="317" gradientUnits="userSpaceOnUse">
<stop stop-color="#111827"/>
<stop offset="1" stop-color="#1F2937"/>
</linearGradient>
<linearGradient id="paint1_linear_813_126" x1="40.7718" y1="495.358" x2="79.4756" y2="495.273" gradientUnits="userSpaceOnUse">
<stop stop-color="#707070"/>
<stop offset="1" stop-color="#5C5C5C"/>
</linearGradient>
<linearGradient id="paint2_linear_813_126" x1="50.8635" y1="492.705" x2="68.1088" y2="494.064" gradientUnits="userSpaceOnUse">
<stop stop-color="#777777"/>
<stop offset="1" stop-color="#383838" stop-opacity="0"/>
</linearGradient>
<linearGradient id="paint3_linear_813_126" x1="67.2381" y1="550.64" x2="81.044" y2="601.666" gradientUnits="userSpaceOnUse">
<stop stop-color="#707070"/>
<stop offset="1" stop-color="#5C5C5C"/>
</linearGradient>
<linearGradient id="paint4_linear_813_126" x1="68.2922" y1="560.705" x2="66.4425" y2="585.184" gradientUnits="userSpaceOnUse">
<stop stop-color="#777777"/>
<stop offset="1" stop-color="#383838" stop-opacity="0"/>
</linearGradient>
<clipPath id="clip0_813_126">
<rect width="1512" height="982" fill="white"/>
</clipPath>
</defs>
</svg>
