<svg width="1512" height="982" viewBox="0 0 1512 982" fill="none" xmlns="http://www.w3.org/2000/svg">
<g clip-path="url(#clip0_803_141)">
<rect width="1512" height="982" fill="url(#paint0_linear_803_141)"/>
<path d="M1375.79 645.348C1439.61 654.056 1442.49 760.387 1378.21 764.59C1347.11 766.623 1306.8 761.266 1261.46 755.499C1168.35 743.656 1077.85 805.025 985.162 790.156C945.403 783.777 934.107 749.319 901.747 757.284C796.436 783.207 883.752 836.574 901.438 862.438C924.802 896.605 832.421 881.396 791.096 879.045C725.639 875.322 767.302 832.211 694.134 809.197C581.657 803.039 442.033 781.002 377.256 746.079C308.041 708.762 411.096 607.321 481.42 642.504V642.504C560.626 682.131 558.756 563.587 471.807 546.744C460.633 544.579 449.423 543.337 438.34 542.81C337.899 538.033 146.844 539.296 113.089 444.576V444.576C63.5763 305.634 355.03 300.032 498.064 336.057C502.473 337.168 506.869 338.142 511.243 338.941C567.178 349.166 613.716 274.956 564.037 247.293C513.78 219.309 425.97 218.075 445.972 144.195C469.282 58.0968 543.664 109.604 655.544 161.809C722.375 192.994 807.41 183.794 862.267 233.086C897.776 264.993 947.929 318.1 1103.34 380.357C1133.92 392.611 1166.41 400.607 1199 405.501C1403.43 436.203 1499.5 450.102 1521.46 500.33C1540.06 542.855 1516 610.319 1470.89 599.382C1440.29 591.964 1399.16 572.279 1360.1 567.255C1287.45 557.91 1278.14 648.793 1351.27 644.634C1359.41 644.171 1367.66 644.239 1375.79 645.348Z" fill="#C4C4C4" fill-opacity="0.01"/>
<path d="M1377.89 678.253C1441.71 686.961 1444.59 793.292 1380.31 797.494C1349.21 799.528 1308.9 794.171 1263.56 788.404C1170.44 776.56 1079.95 837.93 987.262 823.061C947.502 816.682 936.206 782.224 903.846 790.189C798.931 816.014 873.76 859.691 884.535 879.621C904.219 916.032 809.811 892.973 768.422 893.355C745.599 893.567 741.416 888.86 739.553 881.669C729.09 841.272 675.131 841.373 633.605 837.266C536.025 827.614 432.501 807.636 379.356 778.983C310.14 741.667 413.195 640.226 483.52 675.409V675.409C562.726 715.035 560.856 596.492 473.907 579.649C462.732 577.484 451.523 576.242 440.44 575.715C339.999 570.938 148.943 572.201 115.189 477.481V477.481C65.676 338.538 357.129 332.937 500.163 368.962C504.573 370.073 508.969 371.046 513.343 371.846C569.278 382.071 615.816 307.861 566.136 280.198C515.88 252.214 428.069 250.98 448.071 177.099C471.381 91.0016 545.763 142.509 657.643 194.714C724.475 225.899 809.51 216.699 864.366 265.991C899.875 297.898 950.029 351.004 1105.44 413.262C1136.02 425.516 1168.51 433.512 1201.1 438.406C1405.53 469.108 1501.6 483.007 1523.56 533.235C1542.16 575.76 1518.1 643.224 1472.99 632.287C1442.39 624.869 1401.26 605.184 1362.2 600.16C1289.55 590.814 1280.24 681.697 1353.37 677.538C1361.51 677.076 1369.76 677.143 1377.89 678.253Z" fill="#C4C4C4" fill-opacity="0.02"/>
<circle cx="3.0915" cy="3.0915" r="3.0915" transform="matrix(-0.0237398 0.999718 0.999718 0.0237398 246.898 137.531)" fill="#EBEBEB" fill-opacity="0.85"/>
<circle cx="1.68399" cy="1.68399" r="1.68399" transform="matrix(-0.0237398 0.999718 0.999718 0.0237398 223.652 174.112)" fill="#EBEBEB" fill-opacity="0.8"/>
<circle cx="1.95866" cy="1.95866" r="1.95866" transform="matrix(-0.0237398 0.999718 0.999718 0.0237398 1455.09 145.546)" fill="#EBEBEB" fill-opacity="0.7"/>
<circle cx="477.526" cy="111.525" r="3.44441" transform="rotate(91.3603 477.526 111.525)" fill="#EBEBEB" fill-opacity="0.5"/>
<circle cx="904.526" cy="111.525" r="3.44441" transform="rotate(91.3603 904.526 111.525)" fill="#EBEBEB" fill-opacity="0.5"/>
<circle cx="227.524" cy="267.525" r="3.44441" transform="rotate(91.3603 227.524 267.525)" fill="#EBEBEB" fill-opacity="0.5"/>
<circle cx="5.8555" cy="5.8555" r="5.8555" transform="matrix(-0.0237398 0.999718 0.999718 0.0237398 74.2773 369.657)" fill="#EBEBEB" fill-opacity="0.8"/>
<circle cx="2.93174" cy="2.93174" r="2.93174" transform="matrix(-0.0237398 0.999718 0.999718 0.0237398 699.139 101.846)" fill="#EBEBEB" fill-opacity="0.8"/>
<circle cx="3.15898" cy="3.15898" r="3.15898" transform="matrix(-0.0237398 0.999718 0.999718 0.0237398 102.15 345.885)" fill="#EBEBEB" fill-opacity="0.9"/>
<circle cx="4.5142" cy="4.5142" r="4.5142" transform="matrix(0.239272 0.970953 0.970953 -0.239272 1347.76 106.249)" fill="#EBEBEB" fill-opacity="0.95"/>
<circle cx="5.53131" cy="5.53131" r="5.53131" transform="matrix(0.239272 0.970953 0.970953 -0.239272 1382.46 462.104)" fill="#EBEBEB" fill-opacity="0.85"/>
<circle cx="6.17296" cy="6.17296" r="6.17296" transform="matrix(0.239272 0.970953 0.970953 -0.239272 1461.88 820.41)" fill="#EBEBEB" fill-opacity="0.8"/>
<circle cx="2.53193" cy="2.53193" r="2.53193" transform="matrix(0.239272 0.970953 0.970953 -0.239272 1413.99 78.835)" fill="#EBEBEB" fill-opacity="0.85"/>
<circle cx="3.79827" cy="3.79827" r="3.79827" transform="matrix(0.239272 0.970953 0.970953 -0.239272 1372 856.818)" fill="#EBEBEB" fill-opacity="0.85"/>
<circle cx="4.79726" cy="4.79726" r="4.79726" transform="matrix(0.239272 0.970953 0.970953 -0.239272 540.166 785.192)" fill="#EBEBEB" fill-opacity="0.7"/>
<circle cx="1361.67" cy="716.828" r="3.44441" transform="rotate(76.1564 1361.67 716.828)" fill="#EBEBEB" fill-opacity="0.5"/>
<circle cx="911.167" cy="834.169" r="3.44441" transform="rotate(76.1564 911.167 834.169)" fill="#EBEBEB" fill-opacity="0.5"/>
<circle cx="5.8555" cy="5.8555" r="5.8555" transform="matrix(0.239272 0.970953 0.970953 -0.239272 1174 903.802)" fill="#EBEBEB" fill-opacity="0.8"/>
<circle cx="7.28244" cy="7.28244" r="7.28244" transform="matrix(0.278654 0.960392 0.960392 -0.278654 22.3887 735.057)" fill="#EBEBEB" fill-opacity="0.8"/>
<circle cx="4.82114" cy="4.82114" r="4.82114" transform="matrix(0.278654 0.960392 0.960392 -0.278654 249.789 457.871)" fill="#EBEBEB" fill-opacity="0.85"/>
<circle cx="5.0135" cy="5.0135" r="5.0135" transform="matrix(0.278654 0.960392 0.960392 -0.278654 1017.28 289.476)" fill="#EBEBEB" fill-opacity="0.85"/>
<circle cx="3.35176" cy="3.35176" r="3.35176" transform="matrix(0.278654 0.960392 0.960392 -0.278654 50.1621 868.487)" fill="#EBEBEB" fill-opacity="0.7"/>
<circle cx="511.267" cy="602.268" r="3.44441" transform="rotate(73.8201 511.267 602.268)" fill="#EBEBEB" fill-opacity="0.5"/>
<circle cx="103.996" cy="827.978" r="2.47512" transform="rotate(73.8201 103.996 827.978)" fill="#EBEBEB" fill-opacity="0.5"/>
<circle cx="5.8555" cy="5.8555" r="5.8555" transform="matrix(0.278654 0.960392 0.960392 -0.278654 757.389 729.798)" fill="#EBEBEB" fill-opacity="0.8"/>
<circle cx="5.8555" cy="5.8555" r="5.8555" transform="matrix(0.278654 0.960392 0.960392 -0.278654 1399 298.263)" fill="#EBEBEB" fill-opacity="0.8"/>
<circle cx="3.66869" cy="3.66869" r="3.66869" transform="matrix(0.278654 0.960392 0.960392 -0.278654 472.705 884.192)" fill="#EBEBEB" fill-opacity="0.85"/>
<circle cx="656.042" cy="82.0288" r="1.90735" transform="rotate(76.1564 656.042 82.0288)" fill="#EBEBEB" fill-opacity="0.5"/>
<circle cx="137.5" cy="565.5" r="32.5" fill="#F49F6F" fill-opacity="0.1"/>
<circle cx="137.416" cy="565.416" r="27.3905" fill="#F49F6F"/>
<mask id="mask0_803_141" style="mask-type:alpha" maskUnits="userSpaceOnUse" x="110" y="538" width="55" height="55">
<circle cx="137.416" cy="565.416" r="27.3905" fill="#CB7373"/>
</mask>
<g mask="url(#mask0_803_141)">
<circle cx="129.039" cy="558.213" r="27.3905" fill="url(#paint1_linear_803_141)"/>
</g>
<circle cx="1440.04" cy="864.04" r="26.04" fill="#CAB98C" fill-opacity="0.1"/>
<circle cx="1439.97" cy="863.973" r="21.9461" fill="#CAB98C"/>
<mask id="mask1_803_141" style="mask-type:alpha" maskUnits="userSpaceOnUse" x="1418" y="842" width="44" height="44">
<circle cx="1439.97" cy="863.973" r="21.9461" fill="#CB7373"/>
</mask>
<g mask="url(#mask1_803_141)">
<circle cx="1433.26" cy="858.201" r="21.9461" fill="#E7CF92"/>
</g>
<circle cx="1156.5" cy="669.5" r="242.5" fill="#7FEA5A" fill-opacity="0.1"/>
<circle cx="1157.15" cy="670.149" r="202.948" fill="url(#paint2_linear_803_141)"/>
<mask id="mask2_803_141" style="mask-type:alpha" maskUnits="userSpaceOnUse" x="954" y="467" width="407" height="407">
<circle cx="1157.15" cy="670.149" r="202.948" fill="#CF6050"/>
</mask>
<g mask="url(#mask2_803_141)">
<path d="M1193.17 702.098C1175.53 715.821 1145.92 683.859 1147.55 661.57C1147.9 656.906 1150.59 652.401 1154.81 648.068C1157.61 645.194 1160.78 640.038 1163.83 642.644V642.644C1175.57 652.665 1177.53 671.747 1192.91 672.956C1198.81 673.42 1204.96 672.617 1209.92 672.009C1214.3 671.471 1218.72 670.941 1223.08 670.301C1225.17 669.993 1226.99 669.786 1228.59 669.662C1261.22 667.115 1321.23 637.021 1324.5 669.593C1324.55 670.151 1324.58 670.761 1324.58 671.425C1324.58 673.775 1324.28 675.884 1323.71 677.789C1313.04 713.639 1257.05 691.117 1219.65 691.117V691.117C1204.45 692.997 1197.68 698.591 1193.17 702.098Z" fill="#46A3B7"/>
<path d="M1090.32 793.458C1108.09 785.917 1120.32 815.912 1137.38 824.949C1142.99 827.923 1144.31 830.138 1140.44 834.414C1137.73 837.408 1133.45 839.534 1129.88 841.415V841.415C1116.14 848.649 1102.06 826.291 1086.57 825.133C1080.72 824.695 1074.63 825.489 1069.72 826.092C1065.34 826.629 1060.92 827.159 1056.56 827.8C1054.46 828.108 1052.65 828.314 1051.05 828.439C1018.42 830.985 958.406 861.079 955.141 828.508C955.085 827.95 955.057 827.34 955.057 826.676C955.057 824.326 955.361 822.217 955.928 820.312C966.6 784.462 1022.58 806.984 1059.99 806.984V806.984C1080.07 804.499 1085.45 795.524 1090.32 793.458Z" fill="#46A3B7"/>
<path d="M1251.38 570.94C1279.42 587.319 1307.88 603.348 1336.78 618.157C1380.44 640.526 1407.14 669.143 1380.2 682.465C1363.81 690.567 1308.22 682.465 1240.79 675.981C1185.55 677.099 1135.56 695.432 1113.06 695.432C1076.03 695.432 1074.28 663.794 1038.75 645.448C1024.28 637.979 1008.43 633.174 992.626 629.279C961.857 621.698 934.748 623.094 934.748 599.47C934.748 566.991 964.73 538.28 1010.61 520.917C1039.6 509.948 1070.39 551.489 1108.52 551.489C1175.85 546.501 1210.19 546.885 1251.38 570.94Z" fill="#46A3B7"/>
<path d="M1132.23 765.182C1110.32 771.256 1091.5 785.746 1070.01 793.153C1045.74 801.517 1022.55 810.666 1013.11 818.691C1004.5 826.013 1020.23 834.303 1030.61 829.827C1033.93 828.398 1037.28 826.449 1040.75 824.191C1078.69 799.532 1127.19 802.633 1172.44 802.633V802.633C1212.2 807.182 1217.26 805.528 1250.37 806.503C1280.08 807.378 1310.92 806.162 1339.28 797.304C1347.21 794.829 1352.32 790.964 1352.32 782.384C1352.32 768.836 1337.34 762.374 1318.44 756.793C1291.82 748.93 1260.62 743.498 1241.75 763.861C1235.12 771.014 1229.26 777.394 1216.75 777.394C1171.8 774.065 1155.36 758.768 1132.23 765.182Z" fill="#46A3B7"/>
<path d="M1242.02 614.018C1268.42 622.653 1293.45 635.865 1320.9 640.143C1340.65 643.221 1357.63 645.677 1367.45 648.937C1382.2 653.829 1361.65 666.789 1346.21 668.462C1314.81 671.86 1265.93 670.302 1223.67 669.633C1203 669.306 1193.46 646.402 1172.89 648.53V648.53C1109.11 662.594 1058.59 682.958 1023.99 671.402C989.379 659.846 954.313 671.617 951.718 646.542C950.468 634.458 953.967 627.942 961.437 622.861C989.485 603.785 1026.65 599.967 1058.85 610.659C1079.44 617.498 1096.94 625.385 1115.86 623.427C1172.5 613.293 1204 601.585 1242.02 614.018Z" fill="#71CC6F"/>
<path d="M1069.7 826.234C1050.74 820.033 1032.77 810.546 1013.06 807.474C998.603 805.221 986.216 803.432 979.225 801.023C968.943 797.48 983.583 788.165 994.348 786.62C1006.1 784.934 1020.1 784.728 1035.97 784.82C1060.35 784.961 1085.29 801.063 1109.66 801.82V801.82C1116.9 802.045 1122.96 802.293 1130.16 803.029C1169.61 807.061 1192.61 789.925 1226.28 785.026C1262.9 779.696 1276.6 792.164 1278.47 810.171C1279.54 820.582 1273.52 826.345 1263.66 831.422C1242 842.573 1215.62 849.182 1194.6 836.878C1193.74 836.372 1192.88 835.857 1192.03 835.335C1172.02 823.084 1148.37 821.9 1125.33 826.346C1104.3 830.404 1088.06 832.237 1069.7 826.234Z" fill="#71CC6F"/>
<circle cx="1009.31" cy="711.646" r="14.9131" fill="#2A9C3C"/>
<circle cx="1207.72" cy="622.167" r="22.6939" fill="#2A9C3C"/>
<circle cx="1064.43" cy="733.043" r="9.07754" fill="#46B751"/>
</g>
</g>
<defs>
<linearGradient id="paint0_linear_803_141" x1="731.5" y1="879" x2="731.5" y2="370" gradientUnits="userSpaceOnUse">
<stop stop-color="#1F2937"/>
<stop offset="1" stop-color="#111827"/>
</linearGradient>
<linearGradient id="paint1_linear_803_141" x1="121.616" y1="549.128" x2="141.164" y2="568.799" gradientUnits="userSpaceOnUse">
<stop stop-color="#FFCB9A"/>
<stop offset="1" stop-color="#FCB87A" stop-opacity="0"/>
</linearGradient>
<linearGradient id="paint2_linear_803_141" x1="1008.02" y1="559.922" x2="1360.1" y2="873.097" gradientUnits="userSpaceOnUse">
<stop stop-color="#B5EC6F"/>
<stop offset="1" stop-color="#228632"/>
</linearGradient>
<clipPath id="clip0_803_141">
<rect width="1512" height="982" fill="white"/>
</clipPath>
</defs>
</svg>
