<svg width="1512" height="982" viewBox="0 0 1512 982" fill="none" xmlns="http://www.w3.org/2000/svg">
<g clip-path="url(#clip0_803_141)">
<rect width="1512" height="982" fill="url(#paint0_linear_803_141)"/>
<path d="M1443.58 707.803C1439.41 810.395 1283.88 743.702 1118.35 743.932C951.083 849.012 955.792 743.981 901.747 757.284C747.029 795.368 1008.08 892.689 853.274 875.008C701.367 895.534 783.607 837.34 694.134 809.197C505.009 798.843 239.132 743.593 381.378 657.677C419.59 542.566 564.05 756.447 586.05 618.948C480.049 475.189 280.307 581.637 278.526 564.244C7.40661 449.42 103.854 345.155 287.276 382.516C336.451 186.044 493.375 406.01 593.366 320.796C627.402 202.664 416.05 254.717 445.972 144.195C475.894 33.6723 589.976 149.902 759.502 203.281C891.185 185.307 817.328 277.369 1149.88 398.092C1465.76 446.053 1555.49 451.454 1518.74 568.792C1516.05 674.454 1336.25 484.2 1266.98 612.318C1261.45 707.745 1395.96 575.148 1443.58 707.803Z" fill="#C4C4C4" fill-opacity="0.05"/>
<path d="M1445.68 740.707C1441.5 843.299 1285.98 776.607 1120.45 776.836C953.182 881.917 957.892 776.886 903.846 790.189C749.129 828.273 1010.18 925.593 855.374 907.913C703.467 928.439 785.707 870.245 696.234 842.102C507.108 831.748 241.232 776.498 383.478 690.582C421.69 575.471 566.15 789.352 588.149 651.853C482.148 508.094 282.407 614.542 280.626 597.149C9.50622 482.325 105.954 378.06 289.375 415.421C338.551 218.948 495.474 438.915 595.465 353.701C629.502 235.569 418.149 287.622 448.071 177.099C477.994 66.5771 592.075 182.807 761.601 236.186C893.284 218.212 819.428 310.274 1151.98 430.997C1467.86 478.958 1557.59 484.359 1520.84 601.697C1518.15 707.359 1338.35 517.105 1269.08 645.222C1263.55 740.649 1398.06 608.053 1445.68 740.707Z" fill="#C4C4C4" fill-opacity="0.05"/>
<circle cx="3.0915" cy="3.0915" r="3.0915" transform="matrix(-0.0237398 0.999718 0.999718 0.0237398 246.898 137.531)" fill="#EBEBEB" fill-opacity="0.85"/>
<circle cx="7.28244" cy="7.28244" r="7.28244" transform="matrix(-0.0237398 0.999718 0.999718 0.0237398 223.92 162.918)" fill="#EBEBEB" fill-opacity="0.8"/>
<circle cx="7.23326" cy="7.23326" r="7.23326" transform="matrix(-0.0237398 0.999718 0.999718 0.0237398 1455.34 135)" fill="#EBEBEB" fill-opacity="0.7"/>
<circle cx="477.528" cy="111.525" r="3.44441" transform="rotate(91.3603 477.528 111.525)" fill="#EBEBEB" fill-opacity="0.5"/>
<circle cx="904.526" cy="111.525" r="3.44441" transform="rotate(91.3603 904.526 111.525)" fill="#EBEBEB" fill-opacity="0.5"/>
<circle cx="227.526" cy="267.525" r="3.44441" transform="rotate(91.3603 227.526 267.525)" fill="#EBEBEB" fill-opacity="0.5"/>
<circle cx="5.8555" cy="5.8555" r="5.8555" transform="matrix(-0.0237398 0.999718 0.999718 0.0237398 74.2793 369.657)" fill="#EBEBEB" fill-opacity="0.8"/>
<circle cx="5.8555" cy="5.8555" r="5.8555" transform="matrix(-0.0237398 0.999718 0.999718 0.0237398 699.279 96.0002)" fill="#EBEBEB" fill-opacity="0.8"/>
<circle cx="9.2999" cy="9.2999" r="9.2999" transform="matrix(-0.0237398 0.999718 0.999718 0.0237398 102.443 333.606)" fill="#EBEBEB" fill-opacity="0.9"/>
<circle cx="4.5142" cy="4.5142" r="4.5142" transform="matrix(0.239272 0.970953 0.970953 -0.239272 1347.76 106.249)" fill="#EBEBEB" fill-opacity="0.95"/>
<circle cx="8.39974" cy="8.39974" r="8.39974" transform="matrix(0.239272 0.970953 0.970953 -0.239272 1381.09 456.533)" fill="#EBEBEB" fill-opacity="0.85"/>
<circle cx="7.28244" cy="7.28244" r="7.28244" transform="matrix(0.239272 0.970953 0.970953 -0.239272 1461.35 818.255)" fill="#EBEBEB" fill-opacity="0.8"/>
<circle cx="6.65872" cy="6.65872" r="6.65872" transform="matrix(0.239272 0.970953 0.970953 -0.239272 920.002 874.187)" fill="#EBEBEB" fill-opacity="0.85"/>
<circle cx="5.86274" cy="5.86274" r="5.86274" transform="matrix(0.239272 0.970953 0.970953 -0.239272 1412.4 72.3669)" fill="#EBEBEB" fill-opacity="0.85"/>
<circle cx="3.79827" cy="3.79827" r="3.79827" transform="matrix(0.239272 0.970953 0.970953 -0.239272 1339.55 861.524)" fill="#EBEBEB" fill-opacity="0.85"/>
<circle cx="7.23326" cy="7.23326" r="7.23326" transform="matrix(0.239272 0.970953 0.970953 -0.239272 539.002 780.461)" fill="#EBEBEB" fill-opacity="0.7"/>
<circle cx="1361.67" cy="716.828" r="3.44441" transform="rotate(76.1564 1361.67 716.828)" fill="#EBEBEB" fill-opacity="0.5"/>
<circle cx="911.169" cy="890.169" r="3.44441" transform="rotate(76.1564 911.169 890.169)" fill="#EBEBEB" fill-opacity="0.5"/>
<circle cx="5.8555" cy="5.8555" r="5.8555" transform="matrix(0.239272 0.970953 0.970953 -0.239272 1174 903.802)" fill="#EBEBEB" fill-opacity="0.8"/>
<circle cx="3.80623" cy="3.80623" r="3.80623" transform="matrix(0.239272 0.970953 0.970953 -0.239272 1290 904.821)" fill="#EBEBEB" fill-opacity="0.9"/>
<circle cx="7.28244" cy="7.28244" r="7.28244" transform="matrix(0.278654 0.960392 0.960392 -0.278654 22.3906 735.058)" fill="#EBEBEB" fill-opacity="0.8"/>
<circle cx="6.65872" cy="6.65872" r="6.65872" transform="matrix(0.278654 0.960392 0.960392 -0.278654 247 454.853)" fill="#EBEBEB" fill-opacity="0.85"/>
<circle cx="7.30633" cy="7.30633" r="7.30633" transform="matrix(0.278654 0.960392 0.960392 -0.278654 1016 285.072)" fill="#EBEBEB" fill-opacity="0.85"/>
<circle cx="7.23326" cy="7.23326" r="7.23326" transform="matrix(0.278654 0.960392 0.960392 -0.278654 48 861.031)" fill="#EBEBEB" fill-opacity="0.7"/>
<circle cx="511.267" cy="602.268" r="3.44441" transform="rotate(73.8201 511.267 602.268)" fill="#EBEBEB" fill-opacity="0.5"/>
<circle cx="104.658" cy="826.778" r="3.44441" transform="rotate(73.8201 104.658 826.778)" fill="#EBEBEB" fill-opacity="0.5"/>
<circle cx="5.8555" cy="5.8555" r="5.8555" transform="matrix(0.278654 0.960392 0.960392 -0.278654 757.391 729.798)" fill="#EBEBEB" fill-opacity="0.8"/>
<circle cx="5.8555" cy="5.8555" r="5.8555" transform="matrix(0.278654 0.960392 0.960392 -0.278654 1399 298.263)" fill="#EBEBEB" fill-opacity="0.8"/>
<circle cx="4.93896" cy="4.93896" r="4.93896" transform="matrix(0.278654 0.960392 0.960392 -0.278654 472 881.752)" fill="#EBEBEB" fill-opacity="0.85"/>
<circle cx="657.167" cy="80.1685" r="3.44441" transform="rotate(76.1564 657.167 80.1685)" fill="#EBEBEB" fill-opacity="0.5"/>
<circle cx="1304.8" cy="171.23" r="38.2298" fill="#8CB4CA" fill-opacity="0.1"/>
<circle cx="1304.7" cy="171.131" r="32.2195" fill="#8CB4CA"/>
<mask id="mask0_803_141" style="mask-type:alpha" maskUnits="userSpaceOnUse" x="1272" y="138" width="65" height="66">
<circle cx="1304.7" cy="171.131" r="32.2195" fill="#3A7A88"/>
</mask>
<g mask="url(#mask0_803_141)">
<circle cx="1294.85" cy="162.658" r="32.2195" fill="url(#paint1_linear_803_141)"/>
</g>
<path d="M1333.05 150.423C1364.69 128.602 1341.88 167.504 1312.91 187.534C1283.94 207.564 1244.58 217.241 1276.38 191.191" stroke="#6EE6DE" stroke-opacity="0.8" stroke-width="3.38317"/>
<circle cx="137.5" cy="565.5" r="32.5" fill="#F49F6F" fill-opacity="0.1"/>
<circle cx="137.416" cy="565.416" r="27.3905" fill="#F49F6F"/>
<mask id="mask1_803_141" style="mask-type:alpha" maskUnits="userSpaceOnUse" x="110" y="538" width="55" height="55">
<circle cx="137.416" cy="565.416" r="27.3905" fill="#CB7373"/>
</mask>
<g mask="url(#mask1_803_141)">
<circle cx="129.039" cy="558.213" r="27.3905" fill="url(#paint2_linear_803_141)"/>
</g>
<circle cx="1440.04" cy="877.04" r="26.04" fill="#CAB98C" fill-opacity="0.1"/>
<circle cx="1439.97" cy="876.973" r="21.9461" fill="#CAB98C"/>
<mask id="mask2_803_141" style="mask-type:alpha" maskUnits="userSpaceOnUse" x="1418" y="855" width="44" height="44">
<circle cx="1439.97" cy="876.973" r="21.9461" fill="#CB7373"/>
</mask>
<g mask="url(#mask2_803_141)">
<circle cx="1433.26" cy="871.201" r="21.9461" fill="#E7CF92"/>
</g>
<circle cx="1156.5" cy="669.5" r="242.5" fill="#7FEA5A" fill-opacity="0.1"/>
<circle cx="1157.15" cy="670.149" r="202.948" fill="url(#paint3_linear_803_141)"/>
<mask id="mask3_803_141" style="mask-type:alpha" maskUnits="userSpaceOnUse" x="954" y="467" width="407" height="407">
<circle cx="1157.15" cy="670.149" r="202.948" fill="#CF6050"/>
</mask>
<g mask="url(#mask3_803_141)">
<path d="M1193.17 702.098C1175.53 715.821 1145.92 683.859 1147.55 661.57C1147.9 656.906 1150.59 652.401 1154.81 648.068C1157.61 645.194 1160.78 640.038 1163.83 642.644V642.644C1175.57 652.665 1177.53 671.747 1192.91 672.956C1198.81 673.42 1204.96 672.617 1209.92 672.009C1214.3 671.471 1218.72 670.941 1223.08 670.301C1225.17 669.993 1226.99 669.786 1228.59 669.662C1261.22 667.115 1321.23 637.021 1324.5 669.593C1324.55 670.151 1324.58 670.761 1324.58 671.425C1324.58 673.775 1324.28 675.884 1323.71 677.789C1313.04 713.639 1257.05 691.117 1219.65 691.117V691.117C1204.45 692.997 1197.68 698.591 1193.17 702.098Z" fill="#46A3B7"/>
<path d="M1090.32 793.458C1108.09 785.917 1120.32 815.912 1137.38 824.949C1142.99 827.923 1144.31 830.138 1140.44 834.414C1137.73 837.408 1133.45 839.534 1129.88 841.415V841.415C1116.14 848.649 1102.06 826.291 1086.57 825.133C1080.72 824.695 1074.63 825.489 1069.72 826.092C1065.34 826.629 1060.92 827.159 1056.56 827.8C1054.46 828.108 1052.65 828.314 1051.05 828.439C1018.42 830.985 958.406 861.079 955.141 828.508C955.085 827.95 955.057 827.34 955.057 826.676C955.057 824.326 955.361 822.217 955.928 820.312C966.6 784.462 1022.58 806.984 1059.99 806.984V806.984C1080.07 804.499 1085.45 795.524 1090.32 793.458Z" fill="#46A3B7"/>
<path d="M1251.38 570.94C1279.42 587.319 1307.88 603.348 1336.78 618.157C1380.44 640.526 1407.14 669.143 1380.2 682.465C1363.81 690.567 1308.22 682.465 1240.79 675.981C1185.55 677.099 1135.56 695.432 1113.06 695.432C1076.03 695.432 1074.28 663.794 1038.75 645.448C1024.28 637.979 1008.43 633.174 992.626 629.279C961.857 621.698 934.748 623.094 934.748 599.47C934.748 566.991 964.73 538.28 1010.61 520.917C1039.6 509.948 1070.39 551.489 1108.52 551.489C1175.85 546.501 1210.19 546.885 1251.38 570.94Z" fill="#46A3B7"/>
<path d="M1132.23 765.182C1110.32 771.256 1091.5 785.746 1070.01 793.153C1045.74 801.517 1022.55 810.666 1013.11 818.691C1004.5 826.013 1020.23 834.303 1030.61 829.827C1033.93 828.398 1037.28 826.449 1040.75 824.191C1078.69 799.532 1127.19 802.633 1172.44 802.633V802.633C1212.2 807.182 1217.26 805.528 1250.37 806.503C1280.08 807.378 1310.92 806.162 1339.28 797.304C1347.21 794.829 1352.32 790.964 1352.32 782.384C1352.32 768.836 1337.34 762.374 1318.44 756.793C1291.82 748.93 1260.62 743.498 1241.75 763.861C1235.12 771.014 1229.26 777.394 1216.75 777.394C1171.8 774.065 1155.36 758.768 1132.23 765.182Z" fill="#46A3B7"/>
<path d="M1242.02 614.018C1268.42 622.653 1293.45 635.865 1320.9 640.143C1340.65 643.221 1357.63 645.677 1367.45 648.937C1382.2 653.829 1361.65 666.789 1346.21 668.462C1314.81 671.86 1265.93 670.302 1223.67 669.633C1203 669.306 1193.46 646.402 1172.89 648.53V648.53C1109.11 662.594 1058.59 682.958 1023.99 671.402C989.379 659.846 954.313 671.617 951.718 646.542C950.468 634.458 953.967 627.942 961.437 622.861C989.485 603.785 1026.65 599.967 1058.85 610.659C1079.44 617.498 1096.94 625.385 1115.86 623.427C1172.5 613.293 1204 601.585 1242.02 614.018Z" fill="#71CC6F"/>
<path d="M1069.7 826.234C1050.74 820.033 1032.77 810.546 1013.06 807.474C998.603 805.221 986.216 803.432 979.225 801.023C968.943 797.48 983.583 788.165 994.348 786.62C1006.1 784.934 1020.1 784.728 1035.97 784.82C1060.35 784.961 1085.29 801.063 1109.66 801.82V801.82C1116.9 802.045 1122.96 802.293 1130.16 803.029C1169.61 807.061 1192.61 789.925 1226.28 785.026C1262.9 779.696 1276.6 792.164 1278.47 810.171C1279.54 820.582 1273.52 826.345 1263.66 831.422C1242 842.573 1215.62 849.182 1194.6 836.878C1193.74 836.372 1192.88 835.857 1192.03 835.335C1172.02 823.084 1148.37 821.9 1125.33 826.346C1104.3 830.404 1088.06 832.237 1069.7 826.234Z" fill="#71CC6F"/>
<circle cx="1009.31" cy="711.646" r="14.9131" fill="#2A9C3C"/>
<circle cx="1207.72" cy="622.167" r="22.6939" fill="#2A9C3C"/>
<circle cx="1064.43" cy="733.043" r="9.07754" fill="#46B751"/>
</g>
</g>
<defs>
<linearGradient id="paint0_linear_803_141" x1="731.5" y1="879" x2="731.5" y2="370" gradientUnits="userSpaceOnUse">
<stop stop-color="#1F2937"/>
<stop offset="1" stop-color="#111827"/>
</linearGradient>
<linearGradient id="paint1_linear_803_141" x1="1283.16" y1="155.16" x2="1319.53" y2="183.071" gradientUnits="userSpaceOnUse">
<stop stop-color="#63ECFF"/>
<stop offset="1" stop-color="#63D4E3" stop-opacity="0"/>
</linearGradient>
<linearGradient id="paint2_linear_803_141" x1="121.616" y1="549.128" x2="141.164" y2="568.799" gradientUnits="userSpaceOnUse">
<stop stop-color="#FFCB9A"/>
<stop offset="1" stop-color="#FCB87A" stop-opacity="0"/>
</linearGradient>
<linearGradient id="paint3_linear_803_141" x1="1008.02" y1="559.922" x2="1360.1" y2="873.097" gradientUnits="userSpaceOnUse">
<stop stop-color="#B5EC6F"/>
<stop offset="1" stop-color="#228632"/>
</linearGradient>
<clipPath id="clip0_803_141">
<rect width="1512" height="982" fill="white"/>
</clipPath>
</defs>
</svg>
