<svg width="1512" height="982" viewBox="0 0 1512 982" fill="none" xmlns="http://www.w3.org/2000/svg">
<g clip-path="url(#clip0_809_294)">
<rect width="1512" height="982" fill="url(#paint0_linear_809_294)"/>
<path d="M629.084 90.0009C551.182 31.2238 515.923 118.94 572.125 198.72C574.772 202.477 577.332 206.279 579.787 210.131C625.538 281.926 536.624 388.066 451.642 393.146V393.146C359.069 398.68 401.983 294.669 301.685 309.091C276.334 312.736 241.321 330.241 222.561 347.679V347.679C127.583 435.961 203.403 557.642 82.1902 603.706C26.1901 624.988 -30.2241 645.293 -78.6413 659.77C-192.715 693.877 -177.683 563.458 -64.4561 526.636C-32.3976 516.21 0.732105 506.116 29.3689 494.187C111.482 459.981 11.5465 354.814 -69.8243 390.751V390.751C-180.49 439.625 -346.498 495.669 -336.906 375.072C-334.943 350.395 -324.812 322.982 -308.89 295.389C-224.648 149.39 -6.76971 86.3931 157.591 123.78V123.78C217.869 137.491 231.85 53.3487 176.635 25.5514C119.629 -3.14729 37.1597 -0.702095 25.1124 -77.5484C8.93888 -180.715 105.807 -149.286 256.915 -158.408C286.718 -160.207 319.814 -174.026 346.429 -187.556V-187.556C473.339 -252.069 612.139 -167.02 754.253 -175.489V-175.489C812.517 -178.96 897.79 -124.042 885.43 -66.9992C877.013 -28.1513 843.601 9.61432 775.505 69.458C743.804 97.3169 701.927 118.102 661.449 106.162C647.75 102.121 637.565 96.3999 629.084 90.0009Z" fill="#C4C4C4" fill-opacity="0.01"/>
<path d="M667.264 104.085C589.361 45.3083 554.103 133.025 610.305 212.804C612.952 216.561 615.512 220.363 617.967 224.215C663.718 296.011 574.804 402.151 489.822 407.231V407.231C397.249 412.764 440.162 308.753 339.865 323.175C314.513 326.821 279.501 344.326 260.741 361.763V361.763C165.762 450.045 241.583 571.726 120.37 617.791C64.3697 639.072 7.95562 659.377 -40.4616 673.854C-154.535 707.962 -139.503 577.543 -26.2764 540.72C5.78208 530.294 38.9118 520.201 67.5486 508.272C149.662 474.066 49.7262 368.899 -31.6446 404.835V404.835C-142.311 453.709 -308.319 509.753 -298.726 389.156C-296.763 364.48 -286.632 337.067 -270.71 309.473C-186.469 163.474 31.41 100.478 195.771 137.865V137.865C256.049 151.576 270.03 67.4332 214.815 39.6359C157.809 10.9372 75.3393 13.3824 63.2921 -63.4639C47.1186 -166.631 143.987 -135.201 295.095 -144.324C324.897 -146.123 357.994 -159.942 384.609 -173.471V-173.471C511.518 -237.985 650.319 -152.936 792.433 -161.404V-161.404C850.696 -164.876 935.97 -109.958 923.61 -52.9148C915.192 -14.0668 881.781 23.6988 813.685 83.5424C781.984 111.401 740.107 132.187 699.628 120.247C685.93 116.206 675.745 110.484 667.264 104.085Z" fill="#C4C4C4" fill-opacity="0.02"/>
<circle cx="1264.25" cy="140.695" r="3.0915" transform="rotate(88.6397 1264.25 140.695)" fill="#EBEBEB" fill-opacity="0.6"/>
<circle cx="46.3444" cy="148.086" r="1.68038" transform="rotate(88.6397 46.3444 148.086)" fill="#EBEBEB" fill-opacity="0.4"/>
<circle cx="3.44441" cy="3.44441" r="3.44441" transform="matrix(0.0237398 0.999718 0.999718 -0.0237398 1033.12 108.164)" fill="#EBEBEB" fill-opacity="0.2"/>
<circle cx="3.44441" cy="3.44441" r="3.44441" transform="matrix(0.0237398 0.999718 0.999718 -0.0237398 606.117 108.164)" fill="#EBEBEB" fill-opacity="0.2"/>
<circle cx="3.44441" cy="3.44441" r="3.44441" transform="matrix(0.0237398 0.999718 0.999718 -0.0237398 1283.12 264.164)" fill="#EBEBEB" fill-opacity="0.2"/>
<circle cx="1434.18" cy="375.65" r="5.8555" transform="rotate(88.6397 1434.18 375.65)" fill="#EBEBEB" fill-opacity="0.5"/>
<circle cx="807.27" cy="103.992" r="3.90224" transform="rotate(88.6397 807.27 103.992)" fill="#EBEBEB" fill-opacity="0.5"/>
<circle cx="159.275" cy="110.559" r="3.13735" transform="rotate(103.844 159.275 110.559)" fill="#EBEBEB" fill-opacity="0.8"/>
<circle cx="38.182" cy="827.104" r="2.47052" transform="rotate(103.844 38.182 827.104)" fill="#EBEBEB" fill-opacity="0.5"/>
<circle cx="1340.57" cy="529.832" r="2.12176" transform="rotate(103.844 1340.57 529.832)" fill="#EBEBEB" fill-opacity="0.6"/>
<circle cx="170.017" cy="864.303" r="3.79827" transform="rotate(103.844 170.017 864.303)" fill="#EBEBEB" fill-opacity="0.3"/>
<circle cx="960.204" cy="789.508" r="2.10227" transform="rotate(103.844 960.204 789.508)" fill="#EBEBEB" fill-opacity="0.4"/>
<circle cx="3.44441" cy="3.44441" r="3.44441" transform="matrix(-0.239272 0.970953 0.970953 0.239272 149.979 712.659)" fill="#EBEBEB" fill-opacity="0.1"/>
<circle cx="346.581" cy="675.205" r="2.9591" transform="rotate(103.844 346.581 675.205)" fill="#EBEBEB" fill-opacity="0.4"/>
<circle cx="235.607" cy="753.606" r="3.80623" transform="rotate(103.844 235.607 753.606)" fill="#EBEBEB" fill-opacity="0.5"/>
<circle cx="1478.38" cy="742.426" r="3.75623" transform="rotate(106.18 1478.38 742.426)" fill="#EBEBEB" fill-opacity="0.5"/>
<circle cx="1358.1" cy="857.085" r="4.11961" transform="rotate(106.18 1358.1 857.085)" fill="#EBEBEB" fill-opacity="0.4"/>
<circle cx="3.44441" cy="3.44441" r="3.44441" transform="matrix(-0.278654 0.960392 0.960392 0.278654 854.92 816)" fill="#EBEBEB" fill-opacity="0.2"/>
<circle cx="2.32922" cy="2.32922" r="2.32922" transform="matrix(-0.278654 0.960392 0.960392 0.278654 1406.54 824.652)" fill="#EBEBEB" fill-opacity="0.2"/>
<circle cx="747.216" cy="735.06" r="3.99306" transform="rotate(106.18 747.216 735.06)" fill="#EBEBEB" fill-opacity="0.2"/>
<circle cx="104.887" cy="303.919" r="3.4143" transform="rotate(106.18 104.887 303.919)" fill="#EBEBEB" fill-opacity="0.5"/>
<circle cx="1122.11" cy="847.775" r="2.51006" transform="rotate(106.18 1122.11 847.775)" fill="#EBEBEB" fill-opacity="0.6"/>
<circle cx="655.982" cy="82.1296" r="1.82403" transform="rotate(76.1564 655.982 82.1296)" fill="#EBEBEB" fill-opacity="0.5"/>
<circle cx="1334.8" cy="772.23" r="38.2298" fill="#8CB4CA" fill-opacity="0.1"/>
<circle cx="1334.7" cy="772.131" r="32.2195" fill="#8CB4CA"/>
<mask id="mask0_809_294" style="mask-type:alpha" maskUnits="userSpaceOnUse" x="1302" y="739" width="65" height="66">
<circle cx="1334.7" cy="772.131" r="32.2195" fill="#3A7A88"/>
</mask>
<g mask="url(#mask0_809_294)">
<circle cx="1324.85" cy="763.658" r="32.2195" fill="url(#paint1_linear_809_294)"/>
</g>
<path d="M1363.05 751.423C1394.69 729.602 1371.88 768.504 1342.91 788.534C1313.94 808.564 1274.58 818.241 1306.38 792.191" stroke="#6EE6DE" stroke-opacity="0.8" stroke-width="3.38317"/>
</g>
<defs>
<linearGradient id="paint0_linear_809_294" x1="731.5" y1="879" x2="731.5" y2="317" gradientUnits="userSpaceOnUse">
<stop stop-color="#111827"/>
<stop offset="1" stop-color="#130E1D"/>
</linearGradient>
<linearGradient id="paint1_linear_809_294" x1="1313.16" y1="756.16" x2="1349.53" y2="784.071" gradientUnits="userSpaceOnUse">
<stop stop-color="#63ECFF"/>
<stop offset="1" stop-color="#63D4E3" stop-opacity="0"/>
</linearGradient>
<clipPath id="clip0_809_294">
<rect width="1512" height="982" fill="white"/>
</clipPath>
</defs>
</svg>
