<svg width="1512" height="982" viewBox="0 0 1512 982" fill="none" xmlns="http://www.w3.org/2000/svg">
<g clip-path="url(#clip0_809_294)">
<rect width="1512" height="982" fill="url(#paint0_linear_809_294)"/>
<circle cx="1264.25" cy="140.695" r="3.0915" transform="rotate(88.6397 1264.25 140.695)" fill="#EBEBEB" fill-opacity="0.85"/>
<circle cx="46.3444" cy="148.086" r="1.68038" transform="rotate(88.6397 46.3444 148.086)" fill="#EBEBEB" fill-opacity="0.7"/>
<circle cx="3.44441" cy="3.44441" r="3.44441" transform="matrix(0.0237398 0.999718 0.999718 -0.0237398 1033.12 108.164)" fill="#EBEBEB" fill-opacity="0.5"/>
<circle cx="3.44441" cy="3.44441" r="3.44441" transform="matrix(0.0237398 0.999718 0.999718 -0.0237398 606.117 108.164)" fill="#EBEBEB" fill-opacity="0.5"/>
<circle cx="3.44441" cy="3.44441" r="3.44441" transform="matrix(0.0237398 0.999718 0.999718 -0.0237398 1283.12 264.164)" fill="#EBEBEB" fill-opacity="0.5"/>
<circle cx="1434.18" cy="375.65" r="5.8555" transform="rotate(88.6397 1434.18 375.65)" fill="#EBEBEB" fill-opacity="0.8"/>
<circle cx="807.27" cy="103.992" r="3.90224" transform="rotate(88.6397 807.27 103.992)" fill="#EBEBEB" fill-opacity="0.8"/>
<circle cx="159.275" cy="110.559" r="3.13735" transform="rotate(103.844 159.275 110.559)" fill="#EBEBEB" fill-opacity="0.95"/>
<circle cx="38.182" cy="827.104" r="2.47052" transform="rotate(103.844 38.182 827.104)" fill="#EBEBEB" fill-opacity="0.8"/>
<circle cx="1340.57" cy="529.832" r="2.12176" transform="rotate(103.844 1340.57 529.832)" fill="#EBEBEB" fill-opacity="0.85"/>
<circle cx="170.017" cy="864.303" r="3.79827" transform="rotate(103.844 170.017 864.303)" fill="#EBEBEB" fill-opacity="0.85"/>
<circle cx="960.204" cy="789.508" r="2.10227" transform="rotate(103.844 960.204 789.508)" fill="#EBEBEB" fill-opacity="0.7"/>
<circle cx="3.44441" cy="3.44441" r="3.44441" transform="matrix(-0.239272 0.970953 0.970953 0.239272 149.979 712.659)" fill="#EBEBEB" fill-opacity="0.5"/>
<circle cx="346.581" cy="675.205" r="2.9591" transform="rotate(103.844 346.581 675.205)" fill="#EBEBEB" fill-opacity="0.8"/>
<circle cx="235.607" cy="753.606" r="3.80623" transform="rotate(103.844 235.607 753.606)" fill="#EBEBEB" fill-opacity="0.9"/>
<circle cx="1478.38" cy="742.426" r="3.75623" transform="rotate(106.18 1478.38 742.426)" fill="#EBEBEB" fill-opacity="0.8"/>
<circle cx="1358.1" cy="857.085" r="4.11961" transform="rotate(106.18 1358.1 857.085)" fill="#EBEBEB" fill-opacity="0.7"/>
<circle cx="3.44441" cy="3.44441" r="3.44441" transform="matrix(-0.278654 0.960392 0.960392 0.278654 854.92 816)" fill="#EBEBEB" fill-opacity="0.5"/>
<circle cx="2.32922" cy="2.32922" r="2.32922" transform="matrix(-0.278654 0.960392 0.960392 0.278654 1406.54 824.652)" fill="#EBEBEB" fill-opacity="0.5"/>
<circle cx="747.216" cy="735.06" r="3.99306" transform="rotate(106.18 747.216 735.06)" fill="#EBEBEB" fill-opacity="0.8"/>
<circle cx="104.887" cy="303.919" r="3.4143" transform="rotate(106.18 104.887 303.919)" fill="#EBEBEB" fill-opacity="0.8"/>
<circle cx="1122.11" cy="847.775" r="2.51006" transform="rotate(106.18 1122.11 847.775)" fill="#EBEBEB" fill-opacity="0.85"/>
<circle cx="655.982" cy="82.1296" r="1.82403" transform="rotate(76.1564 655.982 82.1296)" fill="#EBEBEB" fill-opacity="0.5"/>
<circle cx="1334.8" cy="772.23" r="38.2298" fill="#8CB4CA" fill-opacity="0.1"/>
<circle cx="1334.7" cy="772.131" r="32.2195" fill="#8CB4CA"/>
<mask id="mask0_809_294" style="mask-type:alpha" maskUnits="userSpaceOnUse" x="1302" y="739" width="65" height="66">
<circle cx="1334.7" cy="772.131" r="32.2195" fill="#3A7A88"/>
</mask>
<g mask="url(#mask0_809_294)">
<circle cx="1324.85" cy="763.658" r="32.2195" fill="url(#paint1_linear_809_294)"/>
</g>
<path d="M1363.05 751.423C1394.69 729.602 1371.88 768.504 1342.91 788.534C1313.94 808.564 1274.58 818.241 1306.38 792.191" stroke="#6EE6DE" stroke-opacity="0.8" stroke-width="3.38317"/>
</g>
<defs>
<linearGradient id="paint0_linear_809_294" x1="731.5" y1="879" x2="731.5" y2="317" gradientUnits="userSpaceOnUse">
<stop stop-color="#111827"/>
<stop offset="1" stop-color="#130E1D"/>
</linearGradient>
<linearGradient id="paint1_linear_809_294" x1="1313.16" y1="756.16" x2="1349.53" y2="784.071" gradientUnits="userSpaceOnUse">
<stop stop-color="#63ECFF"/>
<stop offset="1" stop-color="#63D4E3" stop-opacity="0"/>
</linearGradient>
<clipPath id="clip0_809_294">
<rect width="1512" height="982" fill="white"/>
</clipPath>
</defs>
</svg>
