<svg width="1512" height="982" viewBox="0 0 1512 982" fill="none" xmlns="http://www.w3.org/2000/svg">
<g clip-path="url(#clip0_803_141)">
<rect width="1512" height="982" fill="url(#paint0_linear_803_141)"/>
<path d="M1370.79 650.348C1434.61 659.056 1437.49 765.387 1373.21 769.59C1342.11 771.623 1301.8 766.266 1256.46 760.499C1163.34 748.656 1072.08 810.551 979.801 793.361C939.495 785.853 927.98 750.501 896.745 762.284C893.878 763.366 891.175 764.45 888.627 765.537C816.617 796.251 766.145 868.778 699.567 827.595V827.595C653.752 799.255 610.253 786.057 556.581 781.427C478.965 774.732 406.247 764.057 365.105 746.621C292.704 715.937 406.094 612.321 476.418 647.504V647.504C555.624 687.131 553.754 568.587 466.805 551.744C455.631 549.579 444.422 548.337 433.339 547.81C332.897 543.033 141.842 544.296 108.088 449.576V449.576C58.5744 310.634 350.028 305.032 493.062 341.057C497.472 342.168 501.867 343.142 506.241 343.941C562.176 354.166 608.714 279.956 559.035 252.293C508.778 224.309 420.968 223.075 440.97 149.195C464.28 63.0968 538.662 114.604 650.542 166.809C717.373 197.994 802.408 188.794 857.265 238.086C892.774 269.993 942.927 323.1 1098.33 385.357C1128.92 397.611 1161.41 405.607 1194 410.501C1398.43 441.203 1494.49 455.102 1516.46 505.33C1535.06 547.855 1510.99 615.319 1465.89 604.382C1435.29 596.964 1394.16 577.279 1355.1 572.255C1282.45 562.91 1273.14 653.793 1346.27 649.634C1354.41 649.171 1362.66 649.239 1370.79 650.348Z" fill="#C4C4C4" fill-opacity="0.01"/>
<path d="M1377.89 678.253C1441.71 686.961 1444.59 793.292 1380.31 797.494C1349.21 799.528 1308.9 794.171 1263.56 788.404C1170.44 776.56 1079.18 838.456 986.903 821.266C946.596 813.757 935.082 778.405 903.846 790.189C900.98 791.271 898.277 792.355 895.728 793.442C823.718 824.156 773.247 896.683 706.668 855.5V855.5C660.853 827.16 617.355 813.962 563.683 809.332C486.067 802.637 413.349 791.962 372.207 774.525C299.806 743.842 413.195 640.226 483.52 675.409V675.409C562.726 715.035 560.856 596.492 473.907 579.649C462.732 577.484 451.523 576.242 440.44 575.715C339.999 570.938 148.943 572.201 115.189 477.481V477.481C65.6759 338.538 357.129 332.937 500.163 368.962C504.573 370.073 508.969 371.046 513.343 371.846C569.278 382.071 615.816 307.861 566.136 280.198C515.88 252.214 428.069 250.98 448.071 177.099C471.381 91.0016 545.763 142.509 657.643 194.714C724.475 225.899 809.509 216.699 864.366 265.991C899.875 297.898 950.029 351.004 1105.44 413.262C1136.02 425.516 1168.51 433.512 1201.1 438.406C1405.53 469.108 1501.6 483.007 1523.56 533.235C1542.16 575.76 1518.1 643.224 1472.99 632.287C1442.39 624.869 1401.26 605.184 1362.2 600.16C1289.55 590.814 1280.24 681.697 1353.37 677.538C1361.51 677.076 1369.76 677.143 1377.89 678.253Z" fill="#C4C4C4" fill-opacity="0.02"/>
<circle cx="3.0915" cy="3.0915" r="3.0915" transform="matrix(-0.0237398 0.999718 0.999718 0.0237398 246.898 137.531)" fill="#EBEBEB" fill-opacity="0.66"/>
<circle cx="1.68399" cy="1.68399" r="1.68399" transform="matrix(-0.0237398 0.999718 0.999718 0.0237398 223.652 174.112)" fill="#EBEBEB" fill-opacity="0.66"/>
<circle cx="1.95866" cy="1.95866" r="1.95866" transform="matrix(-0.0237398 0.999718 0.999718 0.0237398 1455.09 145.546)" fill="#EBEBEB" fill-opacity="0.3"/>
<circle cx="477.526" cy="111.525" r="3.44441" transform="rotate(91.3603 477.526 111.525)" fill="#EBEBEB" fill-opacity="0.5"/>
<circle cx="904.526" cy="111.525" r="3.44441" transform="rotate(91.3603 904.526 111.525)" fill="#EBEBEB" fill-opacity="0.5"/>
<circle cx="227.524" cy="267.525" r="3.44441" transform="rotate(91.3603 227.524 267.525)" fill="#EBEBEB" fill-opacity="0.5"/>
<circle cx="5.8555" cy="5.8555" r="5.8555" transform="matrix(-0.0237398 0.999718 0.999718 0.0237398 74.2773 369.657)" fill="#EBEBEB" fill-opacity="0.55"/>
<circle cx="2.93174" cy="2.93174" r="2.93174" transform="matrix(-0.0237398 0.999718 0.999718 0.0237398 981.139 98)" fill="#EBEBEB" fill-opacity="0.66"/>
<circle cx="3.15898" cy="3.15898" r="3.15898" transform="matrix(-0.0237398 0.999718 0.999718 0.0237398 102.15 345.885)" fill="#EBEBEB" fill-opacity="0.2"/>
<circle cx="4.5142" cy="4.5142" r="4.5142" transform="matrix(0.239272 0.970953 0.970953 -0.239272 1347.76 106.249)" fill="#EBEBEB" fill-opacity="0.8"/>
<circle cx="5.53131" cy="5.53131" r="5.53131" transform="matrix(0.239272 0.970953 0.970953 -0.239272 1382.46 462.104)" fill="#EBEBEB" fill-opacity="0.66"/>
<circle cx="6.17296" cy="6.17296" r="6.17296" transform="matrix(0.239272 0.970953 0.970953 -0.239272 1461.88 820.41)" fill="#EBEBEB" fill-opacity="0.3"/>
<circle cx="2.53193" cy="2.53193" r="2.53193" transform="matrix(0.239272 0.970953 0.970953 -0.239272 1413.99 78.835)" fill="#EBEBEB" fill-opacity="0.66"/>
<circle cx="3.79827" cy="3.79827" r="3.79827" transform="matrix(0.239272 0.970953 0.970953 -0.239272 1372 856.818)" fill="#EBEBEB" fill-opacity="0.66"/>
<circle cx="4.79726" cy="4.79726" r="4.79726" transform="matrix(0.239272 0.970953 0.970953 -0.239272 540.166 785.192)" fill="#EBEBEB" fill-opacity="0.1"/>
<circle cx="1361.67" cy="716.828" r="3.44441" transform="rotate(76.1564 1361.67 716.828)" fill="#EBEBEB" fill-opacity="0.5"/>
<circle cx="911.167" cy="834.169" r="3.44441" transform="rotate(76.1564 911.167 834.169)" fill="#EBEBEB" fill-opacity="0.5"/>
<circle cx="5.8555" cy="5.8555" r="5.8555" transform="matrix(0.239272 0.970953 0.970953 -0.239272 1174 903.802)" fill="#EBEBEB" fill-opacity="0.6"/>
<circle cx="7.28244" cy="7.28244" r="7.28244" transform="matrix(0.278654 0.960392 0.960392 -0.278654 22.3887 735.057)" fill="#EBEBEB" fill-opacity="0.66"/>
<circle cx="4.82114" cy="4.82114" r="4.82114" transform="matrix(0.278654 0.960392 0.960392 -0.278654 249.789 457.871)" fill="#EBEBEB" fill-opacity="0.5"/>
<circle cx="5.0135" cy="5.0135" r="5.0135" transform="matrix(0.278654 0.960392 0.960392 -0.278654 1017.28 289.476)" fill="#EBEBEB" fill-opacity="0.3"/>
<circle cx="3.35176" cy="3.35176" r="3.35176" transform="matrix(0.278654 0.960392 0.960392 -0.278654 50.1621 868.487)" fill="#EBEBEB" fill-opacity="0.7"/>
<circle cx="511.267" cy="602.268" r="3.44441" transform="rotate(73.8201 511.267 602.268)" fill="#EBEBEB" fill-opacity="0.2"/>
<circle cx="103.996" cy="827.978" r="2.47512" transform="rotate(73.8201 103.996 827.978)" fill="#EBEBEB" fill-opacity="0.15"/>
<circle cx="5.8555" cy="5.8555" r="5.8555" transform="matrix(0.278654 0.960392 0.960392 -0.278654 757.389 729.798)" fill="#EBEBEB" fill-opacity="0.3"/>
<circle cx="5.8555" cy="5.8555" r="5.8555" transform="matrix(0.278654 0.960392 0.960392 -0.278654 1399 298.263)" fill="#EBEBEB" fill-opacity="0.3"/>
<circle cx="3.66869" cy="3.66869" r="3.66869" transform="matrix(0.278654 0.960392 0.960392 -0.278654 211 838.044)" fill="#EBEBEB" fill-opacity="0.45"/>
<circle cx="656.042" cy="82.0288" r="1.90735" transform="rotate(76.1564 656.042 82.0288)" fill="#EBEBEB" fill-opacity="0.5"/>
<circle cx="137.5" cy="565.5" r="32.5" fill="#F49F6F" fill-opacity="0.1"/>
<circle cx="137.416" cy="565.416" r="27.3905" fill="#F49F6F"/>
<mask id="mask0_803_141" style="mask-type:alpha" maskUnits="userSpaceOnUse" x="110" y="538" width="55" height="55">
<circle cx="137.416" cy="565.416" r="27.3905" fill="#CB7373"/>
</mask>
<g mask="url(#mask0_803_141)">
<circle cx="129.039" cy="558.213" r="27.3905" fill="url(#paint1_linear_803_141)"/>
</g>
<circle cx="1440.04" cy="864.04" r="26.04" fill="#CAB98C" fill-opacity="0.1"/>
<circle cx="1439.97" cy="863.973" r="21.9461" fill="#CAB98C"/>
<mask id="mask1_803_141" style="mask-type:alpha" maskUnits="userSpaceOnUse" x="1418" y="842" width="44" height="44">
<circle cx="1439.97" cy="863.973" r="21.9461" fill="#CB7373"/>
</mask>
<g mask="url(#mask1_803_141)">
<circle cx="1433.26" cy="858.201" r="21.9461" fill="#E7CF92"/>
</g>
<circle cx="1156.5" cy="632.5" r="242.5" fill="#7FEA5A" fill-opacity="0.1"/>
<circle cx="1157.15" cy="633.149" r="202.948" fill="url(#paint2_linear_803_141)"/>
<mask id="mask2_803_141" style="mask-type:alpha" maskUnits="userSpaceOnUse" x="954" y="430" width="407" height="407">
<circle cx="1157.15" cy="633.149" r="202.948" fill="#CF6050"/>
</mask>
<g mask="url(#mask2_803_141)">
<path d="M1193.17 665.098C1175.53 678.821 1145.92 646.859 1147.55 624.57C1147.9 619.906 1150.59 615.401 1154.81 611.068C1157.61 608.194 1160.78 603.038 1163.83 605.644V605.644C1175.57 615.665 1177.53 634.747 1192.91 635.956C1198.81 636.42 1204.96 635.617 1209.92 635.009C1214.3 634.471 1218.72 633.941 1223.08 633.301C1225.17 632.993 1226.99 632.786 1228.59 632.662C1261.22 630.115 1321.23 600.021 1324.5 632.593C1324.55 633.151 1324.58 633.761 1324.58 634.425C1324.58 636.775 1324.28 638.884 1323.71 640.789C1313.04 676.639 1257.05 654.117 1219.65 654.117V654.117C1204.45 655.997 1197.68 661.591 1193.17 665.098Z" fill="#46A3B7"/>
<path d="M1090.32 756.458C1108.09 748.917 1120.32 778.912 1137.38 787.949C1142.99 790.923 1144.31 793.138 1140.44 797.414C1137.73 800.408 1133.45 802.534 1129.88 804.415V804.415C1116.14 811.649 1102.06 789.291 1086.57 788.133C1080.72 787.695 1074.63 788.489 1069.72 789.092C1065.34 789.629 1060.92 790.159 1056.56 790.8C1054.46 791.108 1052.65 791.314 1051.05 791.439C1018.42 793.985 958.406 824.079 955.141 791.508C955.085 790.95 955.057 790.34 955.057 789.676C955.057 787.326 955.361 785.217 955.928 783.312C966.6 747.462 1022.58 769.984 1059.99 769.984V769.984C1080.07 767.499 1085.45 758.524 1090.32 756.458Z" fill="#46A3B7"/>
<path d="M1251.38 533.94C1279.42 550.319 1307.88 566.348 1336.78 581.157C1380.44 603.526 1407.14 632.143 1380.2 645.465C1363.81 653.567 1308.22 645.465 1240.79 638.981C1185.55 640.099 1135.56 658.432 1113.06 658.432C1076.03 658.432 1074.28 626.794 1038.75 608.448C1024.28 600.979 1008.43 596.174 992.626 592.279C961.857 584.698 934.748 586.094 934.748 562.47C934.748 529.991 964.73 501.28 1010.61 483.917C1039.6 472.948 1070.39 514.489 1108.52 514.489C1175.85 509.501 1210.19 509.885 1251.38 533.94Z" fill="#46A3B7"/>
<path d="M1132.23 728.182C1110.32 734.256 1091.5 748.746 1070.01 756.153C1045.74 764.517 1022.55 773.666 1013.11 781.691C1004.5 789.013 1020.23 797.303 1030.61 792.827C1033.93 791.398 1037.28 789.449 1040.75 787.191C1078.69 762.532 1127.19 765.633 1172.44 765.633V765.633C1212.2 770.182 1217.26 768.528 1250.37 769.503C1280.08 770.378 1310.92 769.162 1339.28 760.304C1347.21 757.829 1352.32 753.964 1352.32 745.384C1352.32 731.836 1337.34 725.374 1318.44 719.793C1291.82 711.93 1260.62 706.498 1241.75 726.861C1235.12 734.014 1229.26 740.394 1216.75 740.394C1171.8 737.065 1155.36 721.768 1132.23 728.182Z" fill="#46A3B7"/>
<path d="M1242.02 577.018C1268.42 585.653 1293.45 598.865 1320.9 603.143C1340.65 606.221 1357.63 608.677 1367.45 611.937C1382.2 616.829 1361.65 629.789 1346.21 631.462C1314.81 634.86 1265.93 633.302 1223.67 632.633C1203 632.306 1193.46 609.402 1172.89 611.53V611.53C1109.11 625.594 1058.59 645.958 1023.99 634.402C989.379 622.846 954.313 634.617 951.718 609.542C950.468 597.458 953.967 590.942 961.437 585.861C989.485 566.785 1026.65 562.967 1058.85 573.659C1079.44 580.498 1096.94 588.385 1115.86 586.427C1172.5 576.293 1204 564.585 1242.02 577.018Z" fill="#71CC6F"/>
<path d="M1069.7 789.234C1050.74 783.033 1032.77 773.546 1013.06 770.474C998.603 768.221 986.216 766.432 979.225 764.023C968.943 760.48 983.583 751.165 994.348 749.62C1006.1 747.934 1020.1 747.728 1035.97 747.82C1060.35 747.961 1085.29 764.063 1109.66 764.82V764.82C1116.9 765.045 1122.96 765.293 1130.16 766.029C1169.61 770.061 1192.61 752.925 1226.28 748.026C1262.9 742.696 1276.6 755.164 1278.47 773.171C1279.54 783.582 1273.52 789.345 1263.66 794.422C1242 805.573 1215.62 812.182 1194.6 799.878C1193.74 799.372 1192.88 798.857 1192.03 798.335C1172.02 786.084 1148.37 784.9 1125.33 789.346C1104.3 793.404 1088.06 795.237 1069.7 789.234Z" fill="#71CC6F"/>
<circle cx="1009.31" cy="674.646" r="14.9131" fill="#2A9C3C"/>
<circle cx="1207.72" cy="585.167" r="22.6939" fill="#2A9C3C"/>
<circle cx="1064.43" cy="696.043" r="9.07754" fill="#46B751"/>
</g>
</g>
<defs>
<linearGradient id="paint0_linear_803_141" x1="731.5" y1="879" x2="731.5" y2="370" gradientUnits="userSpaceOnUse">
<stop stop-color="#1F2937"/>
<stop offset="1" stop-color="#111827"/>
</linearGradient>
<linearGradient id="paint1_linear_803_141" x1="121.616" y1="549.128" x2="141.164" y2="568.799" gradientUnits="userSpaceOnUse">
<stop stop-color="#FFCB9A"/>
<stop offset="1" stop-color="#FCB87A" stop-opacity="0"/>
</linearGradient>
<linearGradient id="paint2_linear_803_141" x1="1008.02" y1="522.922" x2="1360.1" y2="836.097" gradientUnits="userSpaceOnUse">
<stop stop-color="#B5EC6F"/>
<stop offset="1" stop-color="#228632"/>
</linearGradient>
<clipPath id="clip0_803_141">
<rect width="1512" height="982" fill="white"/>
</clipPath>
</defs>
</svg>
