<svg width="1512" height="982" viewBox="0 0 1512 982" fill="none" xmlns="http://www.w3.org/2000/svg">
<g clip-path="url(#clip0_822_231)">
<rect width="1512" height="982" fill="url(#paint0_linear_822_231)"/>
<path d="M586.571 1007.92C552.986 916.294 475.798 970.877 479.762 1068.38C479.949 1072.98 480.039 1077.56 480.012 1082.13C479.524 1167.26 347.264 1208.23 273.105 1166.42V1166.42C192.322 1120.87 284.777 1056.75 192.684 1014.48C169.406 1003.8 130.496 999.521 105.278 1004V1004C-22.395 1026.68 -24.6674 1170.03 -151.492 1143.01C-210.084 1130.52 -268.495 1117 -317.026 1102.91C-431.369 1069.71 -348.021 968.28 -232.918 998.735C-200.329 1007.36 -167.019 1016.84 -136.489 1022.35C-48.9477 1038.13 -75.8918 895.577 -163.748 881.65V881.65C-283.234 862.709 -453.107 819.784 -379.656 723.656C-364.626 703.986 -341.25 686.447 -312.91 671.895C-162.962 594.901 54.2647 660.11 172.093 780.645V780.645C215.306 824.85 272.678 761.732 241.357 708.437C209.021 653.413 138.401 610.75 169.947 539.649C212.298 444.195 276.647 523.128 408.56 597.399C434.576 612.047 469.877 618.382 499.576 621.445V621.445C641.191 636.054 711.699 782.776 835.699 852.719V852.719C886.536 881.395 928.407 973.776 887.091 1015C858.954 1043.08 810.403 1056.7 720.738 1070.05C678.996 1076.27 632.539 1071.03 605.002 1039.05C595.683 1028.23 590.228 1017.9 586.571 1007.92Z" fill="#C4C4C4" fill-opacity="0.01"/>
<path d="M611.015 1040.46C577.43 948.83 500.242 1003.41 504.206 1100.92C504.392 1105.51 504.482 1110.1 504.456 1114.66C503.968 1199.8 371.707 1240.77 297.548 1198.95V1198.95C216.765 1153.41 309.22 1089.28 217.127 1047.02C193.849 1036.33 154.939 1032.06 129.721 1036.54V1036.54C2.04839 1059.21 -0.224074 1202.57 -127.048 1175.54C-185.641 1163.06 -244.052 1149.53 -292.583 1135.44C-406.926 1102.25 -323.578 1000.82 -208.475 1031.27C-175.885 1039.89 -142.576 1049.38 -112.046 1054.88C-24.5044 1070.67 -51.4485 928.114 -139.304 914.187V914.187C-258.79 895.246 -428.664 852.321 -355.213 756.193C-340.183 736.523 -316.806 718.983 -288.466 704.432C-138.519 627.438 78.708 692.647 196.536 813.182V813.182C239.749 857.387 297.121 794.269 265.801 740.973C233.464 685.95 162.845 643.286 194.391 572.186C236.741 476.732 301.091 555.665 433.003 629.936C459.019 644.583 494.321 650.918 524.019 653.982V653.982C665.634 668.59 736.142 815.313 860.142 885.256V885.256C910.979 913.931 952.85 1006.31 911.535 1047.54C883.398 1075.62 834.847 1089.23 745.181 1102.59C703.439 1108.81 656.982 1103.57 629.445 1071.59C620.126 1060.76 614.671 1050.43 611.015 1040.46Z" fill="#C4C4C4" fill-opacity="0.02"/>
<circle cx="3.0915" cy="3.0915" r="3.0915" transform="matrix(-0.0237398 0.999718 0.999718 0.0237398 238.971 137.531)" fill="#EBEBEB" fill-opacity="0.6"/>
<circle cx="1.68038" cy="1.68038" r="1.68038" transform="matrix(-0.0237398 0.999718 0.999718 0.0237398 1458.26 146.366)" fill="#EBEBEB" fill-opacity="0.4"/>
<circle cx="469.598" cy="111.525" r="3.44441" transform="rotate(91.3603 469.598 111.525)" fill="#EBEBEB" fill-opacity="0.2"/>
<circle cx="896.598" cy="111.525" r="3.44441" transform="rotate(91.3603 896.598 111.525)" fill="#EBEBEB" fill-opacity="0.2"/>
<circle cx="219.598" cy="267.525" r="3.44441" transform="rotate(91.3603 219.598 267.525)" fill="#EBEBEB" fill-opacity="0.2"/>
<circle cx="5.8555" cy="5.8555" r="5.8555" transform="matrix(-0.0237398 0.999718 0.999718 0.0237398 66.3496 369.657)" fill="#EBEBEB" fill-opacity="0.5"/>
<circle cx="3.90224" cy="3.90224" r="3.90224" transform="matrix(-0.0237398 0.999718 0.999718 0.0237398 122.186 201)" fill="#EBEBEB" fill-opacity="0.5"/>
<circle cx="3.13735" cy="3.13735" r="3.13735" transform="matrix(0.239272 0.970953 0.970953 -0.239272 1343.17 108.264)" fill="#EBEBEB" fill-opacity="0.8"/>
<circle cx="2.47052" cy="2.47052" r="2.47052" transform="matrix(0.239272 0.970953 0.970953 -0.239272 1465.07 825.297)" fill="#EBEBEB" fill-opacity="0.5"/>
<circle cx="2.12176" cy="2.12176" r="2.12176" transform="matrix(0.239272 0.970953 0.970953 -0.239272 163.104 528.28)" fill="#EBEBEB" fill-opacity="0.6"/>
<circle cx="3.79827" cy="3.79827" r="3.79827" transform="matrix(0.239272 0.970953 0.970953 -0.239272 1331.63 861.524)" fill="#EBEBEB" fill-opacity="0.3"/>
<circle cx="2.10227" cy="2.10227" r="2.10227" transform="matrix(0.239272 0.970953 0.970953 -0.239272 543.492 787.97)" fill="#EBEBEB" fill-opacity="0.4"/>
<circle cx="1353.74" cy="716.828" r="3.44441" transform="rotate(76.1564 1353.74 716.828)" fill="#EBEBEB" fill-opacity="0.1"/>
<circle cx="2.9591" cy="2.9591" r="2.9591" transform="matrix(0.239272 0.970953 0.970953 -0.239272 1156.08 673.041)" fill="#EBEBEB" fill-opacity="0.4"/>
<circle cx="3.80623" cy="3.80623" r="3.80623" transform="matrix(0.239272 0.970953 0.970953 -0.239272 1266.03 750.821)" fill="#EBEBEB" fill-opacity="0.5"/>
<circle cx="3.75623" cy="3.75623" r="3.75623" transform="matrix(0.278654 0.960392 0.960392 -0.278654 23.2012 739.865)" fill="#EBEBEB" fill-opacity="0.5"/>
<circle cx="4.11961" cy="4.11961" r="4.11961" transform="matrix(0.278654 0.960392 0.960392 -0.278654 143.031 854.276)" fill="#EBEBEB" fill-opacity="0.4"/>
<circle cx="648.972" cy="820.268" r="3.44441" transform="rotate(73.8201 648.972 820.268)" fill="#EBEBEB" fill-opacity="0.2"/>
<circle cx="98.1133" cy="827.538" r="2.32922" transform="rotate(73.8201 98.1133 827.538)" fill="#EBEBEB" fill-opacity="0.2"/>
<circle cx="3.99306" cy="3.99306" r="3.99306" transform="matrix(0.278654 0.960392 0.960392 -0.278654 754.076 732.338)" fill="#EBEBEB" fill-opacity="0.2"/>
<circle cx="3.4143" cy="3.4143" r="3.4143" transform="matrix(0.278654 0.960392 0.960392 -0.278654 1397.12 301.592)" fill="#EBEBEB" fill-opacity="0.5"/>
<circle cx="2.51006" cy="2.51006" r="2.51006" transform="matrix(0.278654 0.960392 0.960392 -0.278654 381.02 846.064)" fill="#EBEBEB" fill-opacity="0.6"/>
<circle cx="1273.21" cy="180.207" r="1.82403" transform="rotate(76.1564 1273.21 180.207)" fill="#EBEBEB" fill-opacity="0.5"/>
</g>
<defs>
<linearGradient id="paint0_linear_822_231" x1="731.5" y1="879" x2="731.5" y2="317" gradientUnits="userSpaceOnUse">
<stop stop-color="#130E1D"/>
<stop offset="1" stop-color="#111827"/>
</linearGradient>
<clipPath id="clip0_822_231">
<rect width="1512" height="982" fill="white"/>
</clipPath>
</defs>
</svg>
