<svg width="128" height="128" viewBox="0 0 128 128" fill="none" xmlns="http://www.w3.org/2000/svg">
<rect x="32.6687" y="20" width="62.7843" height="25.2502" rx="12.6251" fill="#D9D9D9"/>
<circle cx="47.4493" cy="32.3172" r="8.00617" fill="#1E1E1E"/>
<ellipse cx="46.5255" cy="32.9331" rx="4.00308" ry="5.54273" fill="#F2F2F2"/>
<circle cx="80.7056" cy="32.3172" r="8.00617" fill="#1E1E1E"/>
<ellipse cx="79.1662" cy="32.9331" rx="4.00308" ry="5.54273" fill="#F2F2F2"/>
<path d="M59.7665 37.8599V37.8599C60.8482 42.6294 67.642 42.6183 68.7715 37.8599V37.8599" stroke="black" stroke-width="1.99995" stroke-linecap="round"/>
<rect x="56.8009" y="52.8806" width="13.9494" height="7.88445" rx="3.03248" fill="#C4BFBF"/>
<rect x="56.8008" y="44.9963" width="13.9494" height="7.88445" rx="3.03248" fill="#C4BFBF"/>
<rect x="27.6715" y="59.8257" width="72.7795" height="36.3898" rx="7.45485" fill="#D9D9D9"/>
<rect x="43.5717" y="68.9546" width="40.7266" height="19.3279" rx="6.90281" fill="#F2F2F2"/>
<circle cx="32.8267" cy="96.5186" r="11.8267" fill="#5A5750"/>
<circle cx="94.9733" cy="96.5186" r="11.8267" fill="#5A5750"/>
<circle cx="94.9733" cy="96.5186" r="11.8267" fill="#5A5750"/>
<circle cx="94.9733" cy="96.5186" r="11.8267" fill="#5A5750"/>
</svg>
