<svg width="72" height="72" viewBox="0 0 72 72" fill="none" xmlns="http://www.w3.org/2000/svg">
<g id="scout-icon">
<g id="scout">
<path id="exhaust" d="M23.9571 53.6787C21.1818 56.454 14.7708 57.4307 14.7708 57.4307C14.7708 57.4307 15.7474 51.0197 18.5227 48.2444C21.298 45.4691 23.5954 45.6047 25.0961 47.1054C26.5967 48.606 26.7324 50.9035 23.9571 53.6787Z" fill="#FBCC86"/>
<path id="right-wing" d="M48.8035 48.6677C31.2777 67.4162 35.292 56.0727 35.3534 52.2C35.4214 47.9205 34.1962 43.4395 38.8858 38.75C43.5753 34.0604 49.5971 32.4789 52.3358 35.2176C55.0745 37.9563 53.493 43.9781 48.8035 48.6677Z" fill="#FF6161"/>
<path id="left-wing" d="M23.4656 23.3298C4.71705 40.8556 16.0606 36.8413 19.9333 36.7799C24.2128 36.7119 28.6938 37.9371 33.3833 33.2475C38.0729 28.558 39.6544 22.5362 36.9157 19.7975C34.177 17.0588 28.1552 18.6403 23.4656 23.3298Z" fill="#FF6161"/>
<ellipse id="rocket-body" cx="42.4861" cy="29.8513" rx="12.3926" ry="21.2308" transform="rotate(45 42.4861 29.8513)" fill="white"/>
<circle id="window" cx="48.7356" cy="23.4659" r="3.84268" transform="rotate(45 48.7356 23.4659)" fill="#7EECF3"/>
</g>
</g>
</svg>
