<svg width="128" height="128" viewBox="0 0 128 128" fill="none" xmlns="http://www.w3.org/2000/svg">
<rect x="79.65" y="34.3" width="6.6" height="33" rx="3.3" fill="#626262"/>
<rect x="33.45" y="59.05" width="16.5" height="6.6" rx="3.3" fill="#626262"/>
<rect x="20.25" y="50.8" width="33" height="9.9" rx="3.3" fill="#B4B4B4"/>
<path d="M107.519 39.4524C110.402 40.5115 110.402 44.5885 107.519 45.6476L93.1631 50.922C91.0091 51.7134 88.725 50.1192 88.725 47.8245L88.725 37.2755C88.725 34.9808 91.0091 33.3866 93.1631 34.178L107.519 39.4524Z" fill="#88D18A"/>
<path d="M13.8102 68.5256C12.9432 66.3579 14.5396 64 16.8742 64H106.126C108.46 64 110.057 66.3579 109.19 68.5256L98.6298 94.9256C98.1286 96.1785 96.9152 97 95.5658 97H27.4342C26.0848 97 24.8714 96.1785 24.3702 94.9256L13.8102 68.5256Z" fill="#B4B4B4"/>
</svg>
