<svg width="189" height="189" viewBox="0 0 189 189" fill="none" xmlns="http://www.w3.org/2000/svg">
<circle cx="94.5" cy="94.5" r="94.5" fill="#7FEA5A" fill-opacity="0.1"/>
<circle cx="94.7527" cy="94.7527" r="79.0869" fill="url(#paint0_linear_616_60)"/>
<mask id="mask0_616_60" style="mask-type:alpha" maskUnits="userSpaceOnUse" x="15" y="15" width="159" height="159">
<circle cx="94.7527" cy="94.7527" r="79.0869" fill="#CF6050"/>
</mask>
<g mask="url(#mask0_616_60)">
<path d="M108.79 107.203C101.916 112.551 90.3764 100.095 91.0145 91.4098C91.148 89.5923 92.1967 87.8366 93.8419 86.1481C94.9332 85.028 96.1689 83.0189 97.3582 84.0344C101.931 87.9394 102.694 95.3756 108.689 95.8468C110.989 96.0275 113.387 95.7145 115.317 95.4776C117.023 95.2683 118.746 95.0617 120.446 94.812C121.263 94.6921 121.97 94.6115 122.592 94.5629C135.31 93.5707 158.695 81.8433 159.967 94.5361C159.989 94.7537 160 94.9912 160 95.25C160 96.1658 159.881 96.9876 159.66 97.73C155.502 111.701 133.686 102.924 119.109 102.924C113.188 103.656 110.546 105.836 108.79 107.203Z" fill="#46A3B7"/>
<path d="M68.7112 142.805C75.6361 139.867 80.4016 151.555 87.0489 155.077C89.2361 156.236 89.7516 157.099 88.2437 158.765C87.1879 159.932 85.5176 160.761 84.1252 161.494C78.7711 164.313 73.2844 155.6 67.2504 155.149C64.9696 154.978 62.5964 155.288 60.6832 155.522C58.977 155.732 57.2545 155.938 55.5537 156.188C54.7373 156.308 54.0305 156.388 53.4079 156.437C40.6902 157.429 17.3053 169.157 16.033 156.464C16.0112 156.246 16 156.009 16 155.75C16 154.834 16.1185 154.012 16.3396 153.27C20.4984 139.299 42.3141 148.076 56.8905 148.076C64.718 147.108 66.8143 143.61 68.7112 142.805Z" fill="#46A3B7"/>
<path d="M131.474 56.0919C142.402 62.4748 153.49 68.7209 164.754 74.4919C181.767 83.2088 192.172 94.3607 181.672 99.552C175.287 102.709 153.626 99.552 127.348 97.0252C105.822 97.4611 86.3395 104.605 77.5709 104.605C63.1409 104.605 62.4607 92.2762 48.6134 85.1269C42.9758 82.2162 36.8006 80.344 30.6402 78.8262C18.6498 75.872 8.08557 76.4158 8.08557 67.2097C8.08557 54.5529 19.7691 43.3647 37.6484 36.5985C48.9442 32.3237 60.9442 48.5119 75.8022 48.5119C102.042 46.5682 115.424 46.7177 131.474 56.0919Z" fill="#46A3B7"/>
<path d="M85.0404 131.786C76.5034 134.153 69.1707 139.8 60.7949 142.686C51.3359 145.945 42.3007 149.511 38.6219 152.638C35.2651 155.492 41.3975 158.722 45.4434 156.978C46.7349 156.421 48.0403 155.661 49.3943 154.781C64.1779 145.172 83.0793 146.38 100.711 146.38C116.204 148.153 118.177 147.509 131.082 147.889C142.657 148.23 154.675 147.755 165.729 144.304C168.817 143.339 170.807 141.833 170.807 138.489C170.807 133.21 164.971 130.692 157.606 128.517C147.231 125.453 135.075 123.336 127.722 131.271C125.139 134.059 122.852 136.545 117.978 136.545C100.464 135.248 94.0536 129.287 85.0404 131.786Z" fill="#46A3B7"/>
<path d="M127.825 72.8792C138.114 76.244 147.868 81.3927 158.564 83.0595C166.262 84.259 172.878 85.2164 176.707 86.4867C182.455 88.3931 174.447 93.4435 168.427 94.0953C156.194 95.4197 137.146 94.8125 120.677 94.5518C112.621 94.4243 108.902 85.4987 100.888 86.328C76.0338 91.8085 56.3469 99.7444 42.861 95.2411C29.3751 90.7378 15.7103 95.3249 14.6991 85.5533C14.2119 80.8442 15.5753 78.3049 18.4863 76.3252C29.4167 68.8913 43.9012 67.4034 56.4461 71.57C64.4699 74.2349 71.2923 77.3084 78.6648 76.5456C100.737 72.5964 113.01 68.034 127.825 72.8792Z" fill="#71CC6F"/>
<path d="M60.6772 155.578C53.2887 153.161 46.2842 149.464 38.6033 148.267C32.9696 147.389 28.1425 146.692 25.4182 145.753C21.4113 144.372 27.1162 140.742 31.3114 140.14C35.8917 139.483 41.3475 139.403 47.531 139.439C57.0335 139.494 66.7509 145.769 76.2491 146.064C79.0681 146.151 81.429 146.248 84.2348 146.535C99.6089 148.106 108.572 141.428 121.691 139.519C135.965 137.442 141.303 142.301 142.029 149.318C142.449 153.375 140.101 155.621 136.259 157.599C127.819 161.945 117.541 164.52 109.348 159.725C109.011 159.528 108.678 159.327 108.346 159.124C100.547 154.35 91.333 153.889 82.3545 155.621C74.1582 157.202 67.8303 157.917 60.6772 155.578Z" fill="#71CC6F"/>
<circle cx="37.143" cy="110.924" r="5.8115" fill="#2A9C3C"/>
<circle cx="114.461" cy="76.0548" r="8.84358" fill="#2A9C3C"/>
<circle cx="58.6203" cy="119.262" r="3.53743" fill="#46B751"/>
</g>
<defs>
<linearGradient id="paint0_linear_616_60" x1="36.6377" y1="51.7981" x2="173.84" y2="173.84" gradientUnits="userSpaceOnUse">
<stop stop-color="#B5EC6F"/>
<stop offset="1" stop-color="#228632"/>
</linearGradient>
</defs>
</svg>
